<?xml version="1.0" encoding="UTF-8" standalone="no"?>
<!-- Created with Inkscape (http://www.inkscape.org/) -->

<svg
   width="480"
   height="320"
   viewBox="0 0 127 84.666666"
   version="1.1"
   id="svg1"
   xml:space="preserve"
   inkscape:export-filename="Squareline\assets\bg.png"
   inkscape:export-xdpi="96"
   inkscape:export-ydpi="96"
   inkscape:version="1.3 (0e150ed6c4, 2023-07-21)"
   sodipodi:docname="bg.svg"
   xmlns:inkscape="http://www.inkscape.org/namespaces/inkscape"
   xmlns:sodipodi="http://sodipodi.sourceforge.net/DTD/sodipodi-0.dtd"
   xmlns="http://www.w3.org/2000/svg"
   xmlns:svg="http://www.w3.org/2000/svg"><sodipodi:namedview
     id="namedview1"
     pagecolor="#ffffff"
     bordercolor="#000000"
     borderopacity="0.25"
     inkscape:showpageshadow="2"
     inkscape:pageopacity="0.0"
     inkscape:pagecheckerboard="0"
     inkscape:deskcolor="#d1d1d1"
     inkscape:document-units="mm"
     inkscape:export-bgcolor="#00000000"
     inkscape:zoom="1.6567111"
     inkscape:cx="331.37944"
     inkscape:cy="210.35653"
     inkscape:window-width="2560"
     inkscape:window-height="1571"
     inkscape:window-x="-9"
     inkscape:window-y="-9"
     inkscape:window-maximized="1"
     inkscape:current-layer="layer1" /><defs
     id="defs1"><clipPath
       clipPathUnits="userSpaceOnUse"
       id="clipPath4"><rect
         style="fill:#000000;fill-opacity:0.175462;stroke-width:0.828352"
         id="rect4"
         width="100.59534"
         height="99.997559"
         x="2.7755579e-17"
         y="0" /></clipPath></defs><g
     inkscape:label="bg"
     inkscape:groupmode="layer"
     id="layer1"><rect
       style="fill:#ffffff;fill-opacity:1;stroke-width:0.220983"
       id="rect1"
       width="127"
       height="84.666664"
       x="0"
       y="0"
       inkscape:label="bg" /><path
       id="path3"
       clip-path="url(#clipPath4)"
       style="display:inline;fill:#e5e5e5;stroke-width:1.03923;fill-opacity:1"
       d="M 10.286235 22.461366 L 10.286235 23.666624 L 11.493497 22.461366 L 10.286235 22.461366 z M 14.381386 22.461366 L 10.286235 26.564967 L 10.286235 28.156079 L 15.97484 22.461366 L 14.381386 22.461366 z M 18.896283 22.461366 L 18.635093 22.722878 L 10.286235 31.077448 L 10.286235 32.66231 L 19.149577 23.799847 L 20.488421 22.461366 L 18.896283 22.461366 z M 23.406245 22.461366 L 19.722287 26.150166 L 19.614719 26.362008 L 19.506822 26.574178 L 19.409122 27.008715 L 19.311423 27.443582 L 19.412741 27.915619 L 19.514059 28.387657 L 19.915054 28.843247 L 20.316378 29.299166 L 20.866718 29.459034 L 21.417059 29.619231 L 21.778908 29.551139 L 22.140758 29.483376 L 22.495371 29.298179 L 22.849983 29.113312 L 29.498806 22.461366 L 27.961932 22.461366 L 22.038453 28.38371 L 21.681538 28.450815 L 21.324294 28.517591 L 21.004221 28.352131 L 20.684149 28.186671 L 20.534804 27.829107 L 20.385458 27.471542 L 20.448618 27.210688 L 20.511777 26.950163 L 24.99312 22.461366 L 23.406245 22.461366 z M 32.503802 22.461366 L 28.818199 26.149837 L 28.721816 26.622862 L 28.625103 27.095886 L 28.71096 27.555095 L 28.796817 28.014303 L 28.999453 28.29917 L 29.202418 28.584038 L 29.504398 28.838313 L 29.806378 29.092259 L 30.178096 29.195548 L 30.550143 29.298837 L 30.850149 29.297193 L 31.150156 29.295548 L 31.600165 29.093246 L 32.050174 28.890944 L 36.50257 24.445568 L 38.489782 22.461366 L 36.98054 22.461366 L 35.849924 23.59623 L 31.550164 27.912988 L 31.280093 28.056408 L 31.010021 28.199829 L 30.800148 28.199829 L 30.589947 28.199829 L 30.287309 28.04325 L 29.984342 27.886672 L 29.840589 27.542266 L 29.696507 27.198188 L 29.759995 26.924176 L 29.823154 26.649835 L 34.007781 22.461366 L 32.503802 22.461366 z M 41.467475 22.461366 L 34.397921 29.549823 L 26.419794 37.550118 L 26.315845 38.053076 L 26.211566 38.556364 L 26.31091 39.003072 L 26.410255 39.45011 L 26.66651 39.821819 L 26.922765 40.193199 L 27.431 40.446816 L 27.939234 40.700105 L 28.294833 40.699447 L 28.650104 40.698789 L 29.050112 40.591553 L 29.45012 40.484316 L 41.800048 28.146868 L 47.491285 22.461366 L 45.983688 22.461366 L 41.300367 27.149504 L 29.150443 39.312611 L 28.880372 39.45636 L 28.6103 39.59978 L 28.312926 39.59978 L 28.01588 39.59978 L 27.711597 39.34386 L 27.407315 39.08794 L 27.345142 38.756034 L 27.282641 38.424128 L 27.435276 38.136958 L 27.587582 37.849788 L 35.35419 30.099821 L 43.008955 22.461366 L 41.467475 22.461366 z M 50.471939 22.461366 L 32.048859 40.900104 L 10.286235 62.680933 L 10.286235 64.181584 L 33.093946 41.349773 L 51.962759 22.461366 L 50.471939 22.461366 z M 55.002954 22.461366 L 35.493009 41.964902 L 11.035593 66.41414 L 10.620124 66.470061 L 10.286235 66.514798 L 10.286235 67.598675 L 10.494792 67.597688 L 10.950065 67.595714 L 11.350073 67.407886 L 11.750082 67.220058 L 36.000257 42.953714 L 56.478643 22.461366 L 55.002954 22.461366 z M 59.481665 22.461366 L 44.506354 37.450118 L 27.122112 54.850045 L 27.001056 55.375043 L 26.88033 55.90004 L 26.996451 56.384907 L 27.112901 56.869773 L 27.42442 57.247732 L 27.73594 57.625691 L 28.143185 57.810559 L 28.550102 57.995426 L 29.080047 57.997729 L 29.609992 58.000031 L 29.930065 57.840493 L 30.250137 57.680625 L 49.900216 38.050116 L 65.504159 22.461366 L 64.015641 22.461366 L 49.349876 37.115251 L 29.649138 56.799708 L 29.349789 56.883589 L 29.050441 56.967141 L 28.721487 56.879641 L 28.392862 56.792142 L 28.196805 56.471091 L 28.001077 56.14971 L 28.000748 55.919777 L 28.000419 55.689844 L 28.143843 55.419779 L 28.287596 55.149715 L 45.500454 37.949787 L 61.000118 22.461366 L 59.481665 22.461366 z M 68.468036 22.461366 L 49.795938 41.150103 L 28.514575 62.450013 L 28.39648 62.900011 L 28.278714 63.350009 L 28.337597 63.849349 L 28.396809 64.348689 L 28.677736 64.748358 L 28.958663 65.148356 L 29.354395 65.371053 L 29.750456 65.594078 L 30.157372 65.655591 L 30.564617 65.717433 L 31.00739 65.601315 L 31.450162 65.485526 L 54.850319 42.102072 L 74.504346 22.461366 L 72.978327 22.461366 L 54.300308 41.149774 L 31.150485 64.312505 L 30.863308 64.465136 L 30.576131 64.617438 L 30.244216 64.555267 L 29.912301 64.493096 L 29.656375 64.188821 L 29.400448 63.884546 L 29.400448 63.585534 L 29.400448 63.286851 L 29.510977 63.068431 L 29.621506 62.850011 L 50.851552 41.599772 L 69.972015 22.461366 L 68.468036 22.461366 z M 77.487632 22.461366 L 70.311496 29.64752 L 60.822812 39.149782 L 60.700441 39.535636 L 60.577741 39.921161 L 60.620505 40.510961 L 60.663269 41.10109 L 60.956696 41.517864 L 61.250452 41.934639 L 61.691251 42.167204 L 62.131721 42.399769 L 62.67614 42.399769 L 63.22023 42.399769 L 63.585369 42.231677 L 63.950508 42.063586 L 70.952299 35.076773 L 77.954418 28.09029 L 78.102447 27.99654 L 78.250476 27.903119 L 78.573838 27.901475 L 78.8972 27.89983 L 79.223852 28.191934 L 79.550504 28.483709 L 79.550504 28.940286 L 79.550504 29.396863 L 72.436869 36.523478 L 65.323234 43.650092 L 65.200534 44.035617 L 65.077834 44.421142 L 65.120598 45.011271 L 65.163362 45.601071 L 65.45679 46.017845 L 65.750546 46.43462 L 66.191015 46.667185 L 66.631814 46.900078 L 67.169325 46.900078 L 67.706836 46.900078 L 68.072962 46.747119 L 68.438759 46.594159 L 71.351649 43.697131 L 74.264538 40.800104 L 74.642507 40.800104 L 75.020475 40.800104 L 75.360285 41.139905 L 75.700424 41.480036 L 75.700424 41.863587 L 75.700424 42.247138 L 71.924029 46.023437 L 68.147635 49.800066 L 67.81901 49.800066 L 67.490384 49.800066 L 67.220313 49.656317 L 66.950571 49.512896 L 63.500499 46.049753 L 60.050427 42.586281 L 59.650419 42.373453 L 59.250411 42.160954 L 58.700399 42.160954 L 58.150388 42.160954 L 57.750379 42.373453 L 57.350371 42.585952 L 49.437378 50.518155 L 41.524055 58.450029 L 41.348723 58.925027 L 41.17339 59.400025 L 41.235234 59.851668 L 41.297077 60.303311 L 41.441488 60.582586 L 41.585899 60.86219 L 41.916169 61.184886 L 42.246439 61.507582 L 42.781647 61.663503 L 43.317185 61.819094 L 43.68035 61.751002 L 44.043516 61.682911 L 44.346812 61.531595 L 44.650436 61.380609 L 51.700254 54.351692 L 58.7504 47.322445 L 59.024419 47.259616 L 59.298767 47.196459 L 59.636603 47.337577 L 59.97411 47.478694 L 60.137271 47.711588 L 60.300432 47.944482 L 60.300432 48.345796 L 60.300432 48.74711 L 48.75414 60.298377 L 37.208176 71.849973 L 37.054226 72.221682 L 36.900275 72.593391 L 36.900275 73.125625 L 36.900275 73.657531 L 37.12528 74.102266 L 37.350285 74.54733 L 37.774964 74.842065 L 38.199315 75.13713 L 38.78913 75.179893 L 39.379274 75.222327 L 39.764808 75.099959 L 40.150343 74.977591 L 51.752229 63.388824 L 63.354114 51.800058 L 63.785044 51.800058 L 64.215645 51.800058 L 64.508086 52.092162 L 64.800526 52.384595 L 64.800526 52.814527 L 64.800526 53.244459 L 55.51678 62.547052 L 46.233364 71.849973 L 46.116914 72.261484 L 46.000464 72.673324 L 46.002438 73.061481 L 46.004412 73.449966 L 46.190929 73.86049 L 46.377117 74.271015 L 46.613635 74.497659 L 46.850153 74.723974 L 47.250161 74.909828 L 47.649841 75.095683 L 48.12814 75.097656 L 48.606439 75.099959 L 48.978158 74.945683 L 49.349876 74.791737 L 57.05201 67.095717 L 64.754143 59.400025 L 65.002175 59.388512 L 65.249877 59.376999 L 65.449882 59.396078 L 65.649886 59.415157 L 65.947589 59.707261 L 66.245293 59.999365 L 66.245293 60.394429 L 66.245293 60.789822 L 64.822895 62.233566 L 63.400168 63.677639 L 63.202466 64.113821 L 63.004436 64.550004 L 63.002462 64.88816 L 63.000489 65.226646 L 63.118254 65.638157 L 63.236349 66.049997 L 65.791007 68.62696 L 68.345994 71.204252 L 68.754884 71.401948 L 69.163446 71.599974 L 69.635166 71.599974 L 70.106886 71.599974 L 70.469723 71.44833 L 70.832888 71.296686 L 72.301998 69.848336 L 73.771436 68.399987 L 74.131312 68.399987 L 74.490859 68.399987 L 74.740864 68.513803 L 74.990869 68.627618 L 75.152386 68.968406 L 75.314231 69.309194 L 75.247783 69.629587 L 75.181663 69.949981 L 68.786464 76.355875 L 70.282877 76.355875 L 75.980364 70.649978 L 76.156354 70.299979 L 76.332345 69.949981 L 76.333002 69.39143 L 76.333331 68.833209 L 76.091879 68.39604 L 75.850098 67.958871 L 75.423115 67.658872 L 74.996133 67.359202 L 74.364869 67.319071 L 73.733606 67.27861 L 73.341822 67.482228 L 72.950037 67.685517 L 71.700011 68.949656 L 70.449985 70.213795 L 70.179914 70.356887 L 69.910172 70.499978 L 69.649969 70.499978 L 69.390095 70.499978 L 69.120024 70.357216 L 68.849952 70.214782 L 66.532141 67.882226 L 64.214001 65.549999 L 64.146236 65.275001 L 64.078472 65.000002 L 64.145907 64.725003 L 64.213672 64.450004 L 65.643965 63.00001 L 67.074257 61.550016 L 67.203207 61.150018 L 67.332486 60.75002 L 67.32196 60.271403 L 67.311104 59.793116 L 67.080508 59.376012 L 66.849911 58.958909 L 66.42556 58.660884 L 66.00088 58.362859 L 65.411065 58.320096 L 64.82125 58.277333 L 64.435387 58.400688 L 64.049852 58.523713 L 56.296731 66.261838 L 48.54328 73.999964 L 48.113995 73.999964 L 47.68471 73.999964 L 47.39227 73.707531 L 47.099829 73.415427 L 47.099829 72.984507 L 47.099829 72.553588 L 56.346074 63.301654 L 65.59199 54.050048 L 65.74594 53.67801 L 65.899891 53.306301 L 65.899891 52.793146 L 65.899891 52.280319 L 65.735085 51.932952 L 65.570608 51.585914 L 65.27422 51.289534 L 64.978161 50.993482 L 64.626838 50.846772 L 64.275515 50.700062 L 63.784386 50.700062 L 63.293587 50.700062 L 62.921869 50.85368 L 62.549821 51.007298 L 50.985765 62.567446 L 39.42138 74.127266 L 39.005582 74.127266 L 38.589455 74.127266 L 38.304581 73.854241 L 38.019706 73.581544 L 37.970034 73.32069 L 37.920033 73.060165 L 38.015101 72.804903 L 38.10984 72.54997 L 49.600868 61.050018 L 61.091896 49.550067 L 61.245847 49.178029 L 61.400126 48.80632 L 61.400126 48.315204 L 61.400126 47.824417 L 61.253413 47.473102 L 61.10637 47.121788 L 60.781364 46.79646 L 60.456028 46.471462 L 60.114244 46.32837 L 59.772132 46.185608 L 59.250082 46.185608 L 58.727702 46.185608 L 58.338879 46.346791 L 57.950055 46.507975 L 50.89629 53.556629 L 43.842525 60.605612 L 43.496136 60.660875 L 43.150076 60.716138 L 42.803358 60.481271 L 42.456641 60.246403 L 42.365849 59.929957 L 42.275058 59.613511 L 42.333612 59.379302 L 42.392495 59.145092 L 50.281474 51.254994 L 58.170454 43.365225 L 58.40434 43.278712 L 58.637898 43.192199 L 58.943825 43.256015 L 59.250082 43.31983 L 62.900158 46.95567 L 66.549904 50.591839 L 66.921623 50.745786 L 67.29367 50.900061 L 67.660125 50.900061 L 68.026909 50.900061 L 68.438431 50.78197 L 68.849952 50.663878 L 72.532923 47.006986 L 76.215895 43.349765 L 76.482677 42.899766 L 76.74913 42.449768 L 76.74913 41.849771 L 76.74913 41.249773 L 76.471821 40.777736 L 76.194842 40.30537 L 75.722463 40.028068 L 75.250085 39.750767 L 74.650073 39.754385 L 74.05006 39.758332 L 73.700053 39.939253 L 73.350046 40.120502 L 70.496039 42.960293 L 67.642032 45.799754 L 67.24334 45.799754 L 66.844647 45.799754 L 66.611748 45.636926 L 66.378848 45.473769 L 66.24003 45.141533 L 66.101211 44.809298 L 66.205489 44.529694 L 66.309768 44.249761 L 73.294781 37.24979 L 80.279795 30.24982 L 80.46072 29.899822 L 80.641645 29.549823 L 80.645592 28.949826 L 80.64954 28.349828 L 80.372231 27.877462 L 80.094923 27.405095 L 79.641953 27.139636 L 79.188654 26.873848 L 78.74325 26.823848 L 78.297846 26.773519 L 77.824152 26.948847 L 77.350458 27.124175 L 70.248008 34.211974 L 63.145557 41.299773 L 62.730746 41.299773 L 62.315606 41.299773 L 62.019876 41.05109 L 61.724146 40.802078 L 61.673816 40.539579 L 61.623815 40.27708 L 61.690264 40.028397 L 61.756713 39.779385 L 71.116776 30.414622 L 79.065954 22.461366 L 77.487632 22.461366 z M 81.906474 22.461366 L 80.624868 23.749848 L 80.496247 24.149846 L 80.367626 24.549844 L 80.377823 25.017605 L 80.38835 25.485038 L 80.593946 25.887996 L 80.799543 26.290955 L 81.148563 26.569573 L 81.497912 26.84819 L 81.823906 26.972531 L 82.1499 27.096544 L 82.679845 27.055097 L 83.209461 27.013321 L 83.629865 26.763322 L 84.049939 26.512994 L 87.138819 23.416954 L 88.092457 22.461366 L 86.488806 22.461366 L 86.301631 22.648536 L 83.043339 25.905431 L 82.687082 25.963325 L 82.330824 26.02122 L 82.007791 25.853786 L 81.684429 25.686682 L 81.534755 25.329117 L 81.38541 24.971553 L 81.449227 24.710699 L 81.513044 24.449845 L 83.496638 22.461366 L 81.906474 22.461366 z M 90.989228 22.461366 L 84.143033 29.307061 L 76.899462 36.550122 L 76.733011 36.900121 L 76.56656 37.250119 L 76.520177 37.726762 L 76.474124 38.203734 L 76.643535 38.647153 L 76.812947 39.090572 L 77.173809 39.407347 L 77.534343 39.724122 L 77.842244 39.858003 L 78.150145 39.992213 L 78.600155 39.993858 L 79.050164 39.995502 L 79.500174 39.793201 L 79.950183 39.590899 L 86.824997 32.72152 L 91.13002 28.420223 L 91.13002 26.821216 L 86.108535 31.840932 L 79.046875 38.900112 L 78.728118 38.900112 L 78.409361 38.900112 L 78.147185 38.780376 L 77.885008 38.660969 L 77.742571 38.385641 L 77.600134 38.109984 L 77.600134 37.781696 L 77.600134 37.453079 L 84.818705 30.232057 L 91.13002 23.918268 L 91.13002 22.461366 L 90.989228 22.461366 z M 26.717498 28.881076 L 26.133604 29.050154 L 25.54971 29.219561 L 12.884974 41.884968 L 10.286235 44.483641 L 10.286235 46.071792 L 13.27939 43.081016 L 26.149723 30.221202 L 26.385254 30.101465 L 26.620785 29.982058 L 26.944476 30.042913 L 27.267838 30.103439 L 27.476395 30.326793 L 27.684952 30.550477 L 27.753375 30.825476 L 27.821797 31.100474 L 27.758638 31.351789 L 27.695479 31.603433 L 14.237633 45.062586 L 10.286235 49.014543 L 10.286235 50.555984 L 14.849817 45.987582 L 28.672802 32.15047 L 28.798133 31.67909 L 28.923794 31.20804 L 28.857674 30.76791 L 28.791883 30.32778 L 28.536944 29.935019 L 28.282333 29.542257 L 27.966208 29.327456 L 27.649754 29.112983 L 27.183626 28.997194 L 26.717498 28.881076 z M 17.449871 29.187325 L 17.099864 29.25114 L 16.749857 29.314956 L 16.349848 29.551139 L 15.94984 29.787322 L 10.286235 35.459666 L 10.286235 37.056041 L 17.000191 30.350149 L 17.447897 30.350149 L 17.895275 30.350149 L 18.155149 30.609687 L 18.414694 30.869554 L 18.471932 31.293895 L 18.528841 31.718564 L 10.286235 39.962937 L 10.286235 41.554048 L 19.181157 32.650139 L 19.361753 32.30014 L 19.54202 31.950142 L 19.543994 31.350144 L 19.545967 30.750147 L 19.305173 30.326464 L 19.064707 29.902782 L 18.688713 29.642257 L 18.312718 29.381732 L 17.88113 29.284364 L 17.449871 29.187325 z M 91.13002 31.32021 L 81.028166 41.425431 L 67.408146 55.050373 L 67.206168 55.500371 L 67.003861 55.950369 L 67.002874 56.350367 L 67.001888 56.750366 L 67.240379 57.262206 L 67.478542 57.773717 L 67.814075 58.024373 L 68.149938 58.27503 L 68.449944 58.379635 L 68.749621 58.484569 L 69.14963 58.491477 L 69.549638 58.498385 L 70.049648 58.25957 L 70.549659 58.020755 L 83.590061 44.969823 L 91.13002 37.423803 L 91.13002 35.82052 L 82.858467 44.091209 L 69.547993 57.400363 L 69.163775 57.400363 L 68.779556 57.400363 L 68.439746 57.060562 L 68.099608 56.720432 L 68.099608 56.336223 L 68.099608 55.952014 L 81.64956 42.400755 L 91.13002 32.919546 L 91.13002 31.32021 z M 91.13002 40.323133 L 82.330495 49.128687 L 67.319986 64.150005 L 67.173273 64.450004 L 67.026888 64.750003 L 66.957808 65.130264 L 66.889056 65.510855 L 67.045309 66.030261 L 67.201563 66.549995 L 67.379527 66.749994 L 67.557491 66.949993 L 67.772298 67.134532 L 67.986776 67.319071 L 68.368363 67.460847 L 68.750279 67.602622 L 69.218381 67.556899 L 69.686483 67.511175 L 70.068399 67.312163 L 70.449985 67.113151 L 84.585477 52.971105 L 91.13002 46.423436 L 91.13002 44.820153 L 83.920331 52.029333 L 69.44832 66.499995 L 69.18088 66.499995 L 68.913111 66.499995 L 68.656527 66.402627 L 68.400272 66.30493 L 68.195333 65.977629 L 67.990395 65.649999 L 68.042699 65.302961 L 68.094673 64.955594 L 82.934126 50.102696 L 91.13002 41.899442 L 91.13002 40.323133 z M 23.939151 40.400106 L 23.444732 40.647802 L 22.949985 40.895499 L 12.259303 51.588545 L 10.286235 53.562221 L 10.286235 55.163859 L 12.950435 52.500055 L 23.95198 41.500101 L 24.280934 41.500101 L 24.609888 41.500101 L 24.902 41.651088 L 25.194111 41.802074 L 25.297074 41.994507 L 25.400036 42.186941 L 25.400036 42.616544 L 25.400036 43.046805 L 14.001115 54.448402 L 10.286235 58.164175 L 10.286235 59.661538 L 14.621523 55.325043 L 26.192816 43.750092 L 26.346109 43.378054 L 26.49973 43.006345 L 26.497756 42.528057 L 26.495783 42.050099 L 26.313542 41.649114 L 26.131301 41.248129 L 25.768465 40.929709 L 25.405628 40.61096 L 25.02766 40.506027 L 24.650021 40.401093 L 24.29475 40.400435 L 23.939151 40.400106 z M 91.13002 49.406976 L 87.792122 52.745119 L 76.378069 64.160861 L 76.245172 64.405596 L 76.112274 64.650003 L 76.046812 65.027962 L 75.98135 65.405921 L 76.097142 65.887827 L 76.212605 66.369733 L 76.504059 66.72335 L 76.795512 67.076967 L 77.222824 67.288479 L 77.649806 67.499991 L 78.149817 67.497689 L 78.649827 67.495715 L 79.049835 67.307887 L 79.449844 67.120387 L 89.668477 56.885233 L 91.13002 55.421424 L 91.13002 53.919786 L 89.209257 55.840172 L 78.647853 66.399996 L 78.213963 66.399996 L 77.780072 66.399996 L 77.427104 66.047366 L 77.074465 65.694407 L 77.130058 65.279606 L 77.185652 64.864805 L 88.305949 53.744128 L 91.13002 50.919798 L 91.13002 49.406976 z M 24.550019 57.769111 L 24.15001 57.977992 L 23.750002 58.186544 L 15.265286 66.678284 L 10.286235 71.661487 L 10.286235 73.160822 L 15.853127 67.587162 L 24.350014 59.08029 L 24.685219 58.934567 L 25.020752 58.788515 L 25.3076 58.851673 L 25.594448 58.91483 L 25.847414 59.215158 L 26.100051 59.515485 L 26.100051 59.931273 L 26.100051 60.34739 L 17.306118 69.148668 L 10.286235 76.174296 L 10.286235 76.355875 L 11.597118 76.355875 L 17.981461 69.978928 L 26.820789 61.150018 L 27.008293 60.75002 L 27.196126 60.350021 L 27.1981 59.939826 L 27.200074 59.529959 L 27.084611 59.189829 L 26.969477 58.850028 L 26.778025 58.575358 L 26.586903 58.300688 L 26.141828 58.039834 L 25.696753 57.77898 L 25.123386 57.774046 L 24.550019 57.769111 z M 91.13002 58.520095 L 82.399576 67.249992 L 82.238388 67.73453 L 82.07753 68.219396 L 82.141347 68.618736 L 82.205164 69.018406 L 82.401879 69.403273 L 82.598264 69.788468 L 82.927218 70.039454 L 83.255844 70.290111 L 83.502888 70.388795 L 83.750591 70.487478 L 84.250601 70.491426 L 84.750283 70.495702 L 85.150291 70.307874 L 85.550299 70.120375 L 91.13002 64.532569 L 91.13002 63.018102 L 84.744361 69.399983 L 84.312116 69.399983 L 83.87987 69.399983 L 83.54006 69.059853 L 83.199921 68.720052 L 83.199921 68.454921 L 83.199921 68.19012 L 83.343674 67.920055 L 83.487098 67.64999 L 91.13002 60.01351 L 91.13002 58.520095 z M 38.863145 61.500017 L 38.456558 61.698042 L 38.04997 61.896068 L 26.350714 73.597334 L 23.592762 76.355875 L 25.184571 76.355875 L 27.193495 74.346344 L 38.936831 62.600012 L 39.378287 62.600012 L 39.819744 62.600012 L 40.109881 62.910537 L 40.400019 63.221391 L 40.400019 63.634547 L 40.400019 64.048032 L 28.675104 75.77989 L 28.099434 76.355875 L 29.686967 76.355875 L 41.000031 65.050002 L 41.250037 64.555596 L 41.500042 64.060861 L 41.500042 63.62731 L 41.500042 63.193759 L 41.344775 62.821721 L 41.189509 62.450013 L 40.919767 62.165803 L 40.650024 61.881923 L 40.278964 61.690805 L 39.907903 61.500017 L 39.385524 61.500017 L 38.863145 61.500017 z M 25.963206 65.4 L 25.556618 65.598026 L 25.150031 65.795722 L 17.77718 73.172993 L 14.596193 76.355875 L 16.093922 76.355875 L 18.419299 74.03549 L 25.750044 66.720718 L 25.968469 66.610521 L 26.186895 66.499995 L 26.438874 66.499995 L 26.690524 66.499995 L 26.9527 66.619403 L 27.214877 66.73881 L 27.357643 67.014467 L 27.50008 67.290124 L 27.50008 67.501636 L 27.50008 67.713148 L 27.389551 67.931568 L 27.279352 68.149988 L 19.875908 75.563773 L 19.085102 76.355875 L 20.594673 76.355875 L 20.695004 76.255546 L 28.236937 68.71117 L 28.363585 68.480579 L 28.490232 68.249988 L 28.55701 67.821042 L 28.623787 67.392426 L 28.501745 66.956901 L 28.380032 66.521377 L 28.090224 66.169734 L 27.800086 65.81809 L 27.368498 65.608881 L 26.93691 65.4 L 26.450058 65.4 L 25.963206 65.4 z M 60.733336 66.878941 L 60.340236 67.079598 L 59.946807 67.280255 L 50.869644 76.355875 L 52.386781 76.355875 L 60.751429 67.999989 L 61.167885 67.999989 L 61.58467 67.999989 L 61.884676 68.25262 L 62.185011 68.505579 L 62.249486 68.798012 L 62.313632 69.090774 L 62.157379 69.420378 L 62.000797 69.749982 L 55.394409 76.355875 L 56.87898 76.355875 L 62.980422 70.249979 L 63.148518 69.913797 L 63.316285 69.577614 L 63.321219 69.038143 L 63.326153 68.498671 L 63.082727 68.025318 L 62.838972 67.551965 L 62.417253 67.255584 L 61.995862 66.959204 L 61.364599 66.919073 L 60.733336 66.878941 z M 91.13002 67.512162 L 82.292666 76.355875 L 83.784802 76.355875 L 91.13002 69.015774 L 91.13002 67.512162 z M 80.351178 70.178927 L 79.800509 70.298335 L 79.250168 70.417413 L 73.302018 76.355875 L 74.790536 76.355875 L 79.549846 71.587145 L 79.837023 71.434514 L 80.1242 71.282212 L 80.456114 71.344383 L 80.788029 71.406554 L 81.043956 71.710829 L 81.299882 72.015104 L 81.299882 72.430562 L 81.299882 72.846021 L 77.791914 76.355875 L 79.275827 76.355875 L 82.17819 73.449966 L 82.300561 73.063783 L 82.422932 72.677601 L 82.378852 72.144708 L 82.334772 71.611816 L 82.063385 71.201949 L 81.791997 70.792082 L 81.470938 70.594715 L 81.150208 70.397347 L 80.750528 70.288137 L 80.351178 70.178927 z M 65.394946 71.374646 L 64.97224 71.536487 L 64.549863 71.698329 L 59.892529 76.355875 L 61.391574 76.355875 L 65.251851 72.49997 L 65.668307 72.49997 L 66.084763 72.49997 L 66.385098 72.7526 L 66.685105 73.00556 L 66.746619 73.285164 L 66.808133 73.565097 L 66.699579 73.85753 L 66.591024 74.149963 L 64.386044 76.355875 L 65.904167 76.355875 L 67.41308 74.84996 L 67.622295 74.449962 L 67.83151 74.049963 L 67.832497 73.487137 L 67.833155 72.92431 L 67.56111 72.459839 L 67.289065 71.995367 L 66.888398 71.730565 L 66.488061 71.465435 L 65.941339 71.42004 L 65.394946 71.374646 z M 91.13002 72.124972 L 86.90263 76.355875 L 88.39049 76.355875 L 91.13002 73.615755 L 91.13002 72.124972 z M 44.371154 74.774631 L 43.84713 74.828907 L 43.322777 74.882855 L 42.936256 75.132525 L 42.550064 75.382524 L 41.577675 76.355875 L 43.196459 76.355875 L 43.652718 75.899627 L 44.083977 75.899627 L 44.515236 75.899627 L 44.807676 76.19206 L 44.971825 76.355875 L 46.153099 76.355875 L 46.013622 76.048968 L 45.831382 75.647983 L 45.474467 75.334497 L 45.117222 75.020683 L 44.744188 74.897657 L 44.371154 74.774631 z M 35.099251 74.873644 L 34.713717 74.925618 L 34.328182 74.977262 L 33.989031 75.138117 L 33.649879 75.2993 L 32.594265 76.355875 L 34.197259 76.355875 L 34.553187 75.999955 L 34.871944 75.999955 L 35.1907 75.999955 L 35.428863 76.108507 L 35.667026 76.217059 L 35.748935 76.355875 L 36.975277 76.355875 L 36.853893 75.949955 L 36.448621 75.544036 L 36.04335 75.138117 L 35.5713 75.00588 L 35.099251 74.873644 z "
       transform="matrix(1.5709309,0,0,1.5709702,-16.158965,-35.286137)"
       inkscape:label="pattern"
       inkscape:export-filename="Squareline\assets\bg.png"
       inkscape:export-xdpi="96"
       inkscape:export-ydpi="96" /></g><g
     inkscape:groupmode="layer"
     id="layer2"
     inkscape:label="areas"
     style="display:none"><rect
       style="fill:#979797;fill-opacity:0.35;stroke-width:0.19114"
       id="rect2"
       width="35.71875"
       height="80.697914"
       x="1.984375"
       y="1.984375"
       rx="1.9285712"
       ry="1.9677418"
       inkscape:label="sauce" /><rect
       style="fill:#979797;fill-opacity:0.35;stroke-width:0.220709"
       id="rect3"
       width="47.625"
       height="80.697914"
       x="39.026043"
       y="1.984375"
       ry="1.9677417"
       rx="1.9459459"
       inkscape:label="pattern" /><rect
       style="fill:#979797;fill-opacity:0.35;stroke-width:0.194648"
       id="rect5"
       width="37.041668"
       height="80.697914"
       x="87.973961"
       y="1.984375"
       ry="1.9677417"
       rx="1.5135134"
       inkscape:label="start" /></g></svg>
