<?xml version="1.0" encoding="UTF-8" standalone="no"?>
<!-- Created with Inkscape (http://www.inkscape.org/) -->

<svg
   width="80"
   height="80"
   viewBox="0 0 21.166666 21.166667"
   version="1.1"
   id="svg1"
   inkscape:version="1.4 (86a8ad7, 2024-10-11)"
   sodipodi:docname="buttons.svg"
   xml:space="preserve"
   xmlns:inkscape="http://www.inkscape.org/namespaces/inkscape"
   xmlns:sodipodi="http://sodipodi.sourceforge.net/DTD/sodipodi-0.dtd"
   xmlns="http://www.w3.org/2000/svg"
   xmlns:svg="http://www.w3.org/2000/svg"><sodipodi:namedview
     id="namedview1"
     pagecolor="#ffffff"
     bordercolor="#000000"
     borderopacity="0.25"
     inkscape:showpageshadow="2"
     inkscape:pageopacity="0.0"
     inkscape:pagecheckerboard="0"
     inkscape:deskcolor="#d1d1d1"
     inkscape:document-units="mm"
     inkscape:zoom="1.4142136"
     inkscape:cx="115.96551"
     inkscape:cy="191.27238"
     inkscape:window-width="1920"
     inkscape:window-height="1057"
     inkscape:window-x="-8"
     inkscape:window-y="-8"
     inkscape:window-maximized="1"
     inkscape:current-layer="layer1"
     showgrid="false"><inkscape:page
       x="0"
       y="0"
       width="21.166666"
       height="21.166668"
       id="page7"
       margin="0"
       bleed="0"
       inkscape:label="line" /><inkscape:page
       x="31.166666"
       y="0"
       width="21.166666"
       height="21.166668"
       id="page8"
       margin="0"
       bleed="0"
       inkscape:label="thick" /><inkscape:page
       x="62.333332"
       y="0"
       width="21.166666"
       height="21.166668"
       id="page9"
       margin="0"
       bleed="0"
       inkscape:label="zigzag"
       inkscape:export-filename="Squareline\assets\zigzag.png"
       inkscape:export-xdpi="120.00002"
       inkscape:export-ydpi="120.00002" /><inkscape:page
       x="0.057897162"
       y="26.052631"
       width="21.166666"
       height="21.166668"
       id="page10"
       margin="0"
       bleed="0"
       inkscape:label="double" /><inkscape:page
       x="63.042305"
       y="28.001429"
       width="21.166666"
       height="21.166668"
       id="page11"
       margin="0"
       bleed="0"
       inkscape:label="loops" /><inkscape:page
       x="32.037556"
       y="27.510176"
       width="21.166666"
       height="21.166668"
       id="page13"
       margin="0"
       bleed="0"
       inkscape:label="wave" /><inkscape:page
       x="28.4125"
       y="64.029167"
       width="21.166666"
       height="21.166668"
       id="page28"
       margin="0"
       bleed="0"
       inkscape:export-filename="Squareline\assets\tick.png"
       inkscape:export-xdpi="96"
       inkscape:export-ydpi="96"
       inkscape:label="tick" /></sodipodi:namedview><defs
     id="defs1" /><g
     inkscape:groupmode="layer"
     id="layer2"
     inkscape:label="line"
     style="display:inline"
     inkscape:export-filename="line.png"
     inkscape:export-xdpi="96"
     inkscape:export-ydpi="96"><path
       id="rect1"
       style="display:inline;fill:#0099ff;fill-opacity:0.501961;stroke:none;stroke-width:1.05833;stroke-miterlimit:4;stroke-dasharray:none;stroke-opacity:0.501961;paint-order:fill markers stroke"
       d="M 2.1166667,0 C 0.94403339,0 0,0.94403339 0,2.1166667 V 19.05 c 0,1.172633 0.94403339,2.116667 2.1166667,2.116667 H 19.05 c 1.172633,0 2.116667,-0.944034 2.116667,-2.116667 V 2.1166667 C 21.166667,0.94403339 20.222633,0 19.05,0 Z m 0,1.0583333 H 19.05 c 0.586317,0 1.058333,0.4720167 1.058333,1.0583334 V 19.05 c 0,0.586317 -0.472016,1.058333 -1.058333,1.058333 H 2.1166667 C 1.53035,20.108333 1.0583333,19.636317 1.0583333,19.05 V 2.1166667 c 0,-0.5863167 0.4720167,-1.0583334 1.0583334,-1.0583334 z"
       inkscape:label="outline" /><rect
       style="display:inline;fill:#ffffff;fill-opacity:0.501961;stroke:none;stroke-width:0.952497;stroke-miterlimit:4;stroke-dasharray:none;stroke-opacity:0.501961;paint-order:fill markers stroke"
       id="rect3"
       width="19.049999"
       height="19.049999"
       x="1.0583333"
       y="1.0583333"
       rx="1.0583333"
       ry="1.0583333"
       inkscape:label="bg" /><text
       xml:space="preserve"
       style="font-style:normal;font-variant:normal;font-weight:normal;font-stretch:normal;font-size:4.23333px;line-height:0.8;font-family:'Fugaz One';-inkscape-font-specification:'Fugaz One, Normal';font-variant-ligatures:normal;font-variant-caps:normal;font-variant-numeric:normal;font-variant-east-asian:normal;text-align:center;writing-mode:lr-tb;direction:ltr;text-anchor:middle;fill:#000000;fill-opacity:1;stroke:none;stroke-width:1.05833;stroke-linecap:butt;stroke-miterlimit:4;stroke-dasharray:none;stroke-dashoffset:0;stroke-opacity:0.501961;paint-order:normal"
       x="10.61085"
       y="18.990734"
       id="text4"
       inkscape:label="text"><tspan
         sodipodi:role="line"
         id="tspan4"
         style="font-style:normal;font-variant:normal;font-weight:normal;font-stretch:normal;font-size:4.23333px;font-family:'Fugaz One';-inkscape-font-specification:'Fugaz One, Normal';font-variant-ligatures:normal;font-variant-caps:normal;font-variant-numeric:normal;font-variant-east-asian:normal;fill:#000000;fill-opacity:1;stroke-width:1.05833"
         x="10.61085"
         y="18.990734">Line</tspan></text><rect
       style="fill:#0000ff;fill-opacity:1;stroke-width:1.45891;stroke-opacity:0.501961"
       id="rect2"
       width="1.0583333"
       height="18.520834"
       x="12.703129"
       y="-12.192606"
       rx="0.52916664"
       ry="0.52916664"
       transform="rotate(51.154276)"
       inkscape:label="art" /></g><g
     inkscape:groupmode="layer"
     id="g20"
     inkscape:label="thick"
     style="display:inline"
     inkscape:export-filename="thick.png"
     inkscape:export-xdpi="96"
     inkscape:export-ydpi="96"><path
       id="path19"
       style="display:inline;fill:#0099ff;fill-opacity:0.501961;stroke:none;stroke-width:1.05833;stroke-miterlimit:4;stroke-dasharray:none;stroke-opacity:0.501961;paint-order:fill markers stroke"
       d="M 33.283334,0 C 32.1107,0 31.166667,0.9440334 31.166667,2.1166667 V 19.05 c 0,1.172633 0.944033,2.116667 2.116667,2.116667 h 16.933333 c 1.172633,0 2.116667,-0.944034 2.116667,-2.116667 V 2.1166667 C 52.333334,0.9440334 51.3893,0 50.216667,0 Z m 0,1.0583333 h 16.933333 c 0.586317,0 1.058333,0.4720167 1.058333,1.0583334 V 19.05 c 0,0.586317 -0.472016,1.058333 -1.058333,1.058333 H 33.283334 C 32.697017,20.108333 32.225,19.636317 32.225,19.05 V 2.1166667 c 0,-0.5863167 0.472017,-1.0583334 1.058334,-1.0583334 z"
       inkscape:label="outline" /><rect
       style="display:inline;fill:#ffffff;fill-opacity:0.501961;stroke:none;stroke-width:0.952497;stroke-miterlimit:4;stroke-dasharray:none;stroke-opacity:0.501961;paint-order:fill markers stroke"
       id="rect19"
       width="19.049999"
       height="19.049999"
       x="32.224998"
       y="1.0583333"
       rx="1.0583333"
       ry="1.0583333"
       inkscape:label="bg" /><text
       xml:space="preserve"
       style="font-style:normal;font-variant:normal;font-weight:normal;font-stretch:normal;font-size:4.23333px;line-height:0.8;font-family:'Fugaz One';-inkscape-font-specification:'Fugaz One, Normal';font-variant-ligatures:normal;font-variant-caps:normal;font-variant-numeric:normal;font-variant-east-asian:normal;text-align:center;writing-mode:lr-tb;direction:ltr;text-anchor:middle;fill:#000000;fill-opacity:1;stroke:none;stroke-width:1.05833;stroke-linecap:butt;stroke-miterlimit:4;stroke-dasharray:none;stroke-dashoffset:0;stroke-opacity:0.501961;paint-order:normal"
       x="41.777515"
       y="18.990734"
       id="text19"
       inkscape:label="text"><tspan
         sodipodi:role="line"
         id="tspan19"
         style="font-style:normal;font-variant:normal;font-weight:normal;font-stretch:normal;font-size:4.23333px;font-family:'Fugaz One';-inkscape-font-specification:'Fugaz One, Normal';font-variant-ligatures:normal;font-variant-caps:normal;font-variant-numeric:normal;font-variant-east-asian:normal;fill:#000000;fill-opacity:1;stroke-width:1.05833"
         x="41.777515"
         y="18.990734">Thick</tspan></text><rect
       style="fill:#0000ff;fill-opacity:1;stroke-width:1.45891;stroke-opacity:0.501961"
       id="rect20"
       width="2.1166666"
       height="18.520834"
       x="31.722492"
       y="-36.466381"
       rx="1.0583333"
       ry="1.0583333"
       transform="rotate(51.154276)"
       inkscape:label="art" /></g><g
     inkscape:groupmode="layer"
     id="g4"
     inkscape:label="zig zag"
     style="display:inline"
     inkscape:export-filename="zigzag.png"
     inkscape:export-xdpi="96"
     inkscape:export-ydpi="96"><path
       id="path14"
       style="display:inline;fill:#0099ff;fill-opacity:0.501961;stroke:none;stroke-width:1.05833;stroke-miterlimit:4;stroke-dasharray:none;stroke-opacity:0.501961;paint-order:fill markers stroke"
       d="M 64.450001,0 C 63.277367,0 62.333334,0.944033 62.333334,2.116667 V 19.05 c 0,1.172633 0.944033,2.116667 2.116667,2.116667 h 16.933333 c 1.172633,0 2.116667,-0.944034 2.116667,-2.116667 V 2.116667 C 83.500001,0.944033 82.555967,0 81.383334,0 Z m 0,1.058333 h 16.933333 c 0.586317,0 1.058333,0.472017 1.058333,1.058334 V 19.05 c 0,0.586317 -0.472016,1.058333 -1.058333,1.058333 H 64.450001 c -0.586317,0 -1.058334,-0.472016 -1.058334,-1.058333 V 2.116667 c 0,-0.586317 0.472017,-1.058334 1.058334,-1.058334 z"
       inkscape:label="outline" /><rect
       style="display:inline;fill:#ffffff;fill-opacity:0.501961;stroke:none;stroke-width:0.952497;stroke-miterlimit:4;stroke-dasharray:none;stroke-opacity:0.501961;paint-order:fill markers stroke"
       id="rect14"
       width="19.049999"
       height="19.049999"
       x="63.391663"
       y="1.0583334"
       rx="1.0583333"
       ry="1.0583333"
       inkscape:label="bg" /><text
       xml:space="preserve"
       style="font-style:normal;font-variant:normal;font-weight:normal;font-stretch:normal;font-size:4.23333px;line-height:0.8;font-family:'Fugaz One';-inkscape-font-specification:'Fugaz One, Normal';font-variant-ligatures:normal;font-variant-caps:normal;font-variant-numeric:normal;font-variant-east-asian:normal;text-align:center;writing-mode:lr-tb;direction:ltr;text-anchor:middle;fill:#000000;fill-opacity:1;stroke:none;stroke-width:1.05833;stroke-linecap:butt;stroke-miterlimit:4;stroke-dasharray:none;stroke-dashoffset:0;stroke-opacity:0.501961;paint-order:normal"
       x="72.944168"
       y="18.990736"
       id="text2"
       inkscape:label="text"><tspan
         sodipodi:role="line"
         id="tspan2"
         style="font-style:normal;font-variant:normal;font-weight:normal;font-stretch:normal;font-size:4.23333px;font-family:'Fugaz One';-inkscape-font-specification:'Fugaz One, Normal';font-variant-ligatures:normal;font-variant-caps:normal;font-variant-numeric:normal;font-variant-east-asian:normal;fill:#000000;fill-opacity:1;stroke-width:1.05833"
         x="72.944168"
         y="18.990736">Zig zag</tspan></text><path
       id="path6"
       style="fill:#0000ff;fill-opacity:1;stroke-width:0.0697924"
       d="M 77.126303,3.0625 C 77.030743,3.714866 76.935377,4.367258 76.839193,5.019531 76.01246,4.897831 75.185668,4.776518 74.358725,4.65625 74.237789,5.480066 74.120746,6.304423 73.991537,7.1269531 73.169495,7.0181321 72.34933,6.8961911 71.528646,6.777344 c -0.119734,0.8223851 -0.242645,1.6442793 -0.361328,2.4667973 -0.826734,-0.121701 -1.653525,-0.243014 -2.480469,-0.363282 -0.120256,0.826945 -0.241592,1.6537337 -0.363281,2.4804687 -0.826734,-0.1217 -1.653525,-0.243014 -2.480469,-0.363281 -0.16941,1.17086 -0.342446,2.341126 -0.513671,3.511719 0.555673,0.08434 1.111685,0.165894 1.667968,0.246093 0.08938,-0.615952 0.180225,-1.231692 0.269532,-1.847656 0.826733,0.121701 1.653525,0.243014 2.480468,0.363281 0.120257,-0.826945 0.241593,-1.653733 0.363282,-2.480468 0.823117,0.11972 1.646107,0.240334 2.46875,0.363281 0.11981,-0.827661 0.241605,-1.6550337 0.363281,-2.4824217 0.826518,0.122528 1.65369,0.24058 2.480469,0.361328 0.119964,-0.822336 0.23858,-1.6448702 0.361328,-2.4667973 0.826115,0.121483 1.652199,0.24318 2.478516,0.3632811 0.120256,-0.8269451 0.241592,-1.6537331 0.363281,-2.4804681 0.61467,0.08925 1.229209,0.179397 1.84375,0.269531 0.08789,-0.554606 0.167652,-1.110292 0.248047,-1.666016 -1.171887,-0.171143 -2.343513,-0.34407 -3.515625,-0.513672 -0.02539,0.17448 -0.05078,0.348959 -0.07617,0.523438 z"
       inkscape:label="art" /></g><g
     inkscape:groupmode="layer"
     id="g21"
     inkscape:label="double line"
     style="display:inline"
     transform="translate(0.07719303,-0.52105263)"
     inkscape:export-filename="double.png"
     inkscape:export-xdpi="96"
     inkscape:export-ydpi="96"><path
       id="path20"
       style="display:inline;fill:#0099ff;fill-opacity:0.501961;stroke:none;stroke-width:1.05833;stroke-miterlimit:4;stroke-dasharray:none;stroke-opacity:0.501961;paint-order:fill markers stroke"
       d="m 2.0973741,26.573684 c -1.17263998,0 -2.11666997,0.944034 -2.11666997,2.116667 v 16.933333 c 0,1.172633 0.94402999,2.116667 2.11666997,2.116667 H 19.030709 c 1.17264,0 2.11667,-0.944034 2.11667,-2.116667 V 28.690351 c 0,-1.172633 -0.94403,-2.116667 -2.11667,-2.116667 z m 0,1.058334 H 19.030709 c 0.58632,0 1.05834,0.472016 1.05834,1.058333 v 16.933333 c 0,0.586317 -0.47202,1.058333 -1.05834,1.058333 H 2.0973741 c -0.58632,0 -1.05834,-0.472016 -1.05834,-1.058333 V 28.690351 c 0,-0.586317 0.47202,-1.058333 1.05834,-1.058333 z"
       inkscape:label="outline" /><rect
       style="display:inline;fill:#ffffff;fill-opacity:0.501961;stroke:none;stroke-width:0.952497;stroke-miterlimit:4;stroke-dasharray:none;stroke-opacity:0.501961;paint-order:fill markers stroke"
       id="rect21"
       width="19.049999"
       height="19.049999"
       x="1.0390571"
       y="27.632019"
       rx="1.0583333"
       ry="1.0583333"
       inkscape:label="bg" /><text
       xml:space="preserve"
       style="font-style:normal;font-variant:normal;font-weight:normal;font-stretch:normal;font-size:4.23333px;line-height:0.8;font-family:'Fugaz One';-inkscape-font-specification:'Fugaz One, Normal';font-variant-ligatures:normal;font-variant-caps:normal;font-variant-numeric:normal;font-variant-east-asian:normal;text-align:center;writing-mode:lr-tb;direction:ltr;text-anchor:middle;fill:#000000;fill-opacity:1;stroke:none;stroke-width:1.05833;stroke-linecap:butt;stroke-miterlimit:4;stroke-dasharray:none;stroke-dashoffset:0;stroke-opacity:0.501961;paint-order:normal"
       x="10.59157"
       y="45.564423"
       id="text21"
       inkscape:label="text"><tspan
         sodipodi:role="line"
         id="tspan21"
         style="font-style:normal;font-variant:normal;font-weight:normal;font-stretch:normal;font-size:4.23333px;font-family:'Fugaz One';-inkscape-font-specification:'Fugaz One, Normal';font-variant-ligatures:normal;font-variant-caps:normal;font-variant-numeric:normal;font-variant-east-asian:normal;fill:#000000;fill-opacity:1;stroke-width:1.05833"
         x="10.59157"
         y="45.564423">Double</tspan></text><path
       id="rect27"
       style="display:inline;fill:#0000ff;stroke-width:1.45891;stroke-opacity:0.501961"
       inkscape:label="art"
       d="m 17.246082,28.573275 c 0.183876,0.228323 0.148094,0.560165 -0.08023,0.744042 L 3.5654004,40.270243 C 3.3370771,40.45412 3.005235,40.418338 2.8213588,40.190016 2.637482,39.961693 2.6732636,39.62985 2.9015869,39.445974 L 16.50204,28.493047 c 0.228323,-0.183877 0.560165,-0.148095 0.744042,0.08023 z m 1.060635,1.31741 c 0.183876,0.228323 0.148094,0.560165 -0.08023,0.744042 L 4.6260353,41.587653 C 4.397712,41.77153 4.0658698,41.735748 3.8819937,41.507426 3.6981168,41.279103 3.7338985,40.947261 3.9622218,40.763384 L 17.562674,29.810457 c 0.228324,-0.183876 0.560166,-0.148095 0.744043,0.08023 z"
       sodipodi:nodetypes="ssssssssssssss" /></g><g
     inkscape:groupmode="layer"
     id="g23"
     inkscape:label="wave"
     style="display:inline"
     transform="translate(0.07719303,-0.52105263)"
     inkscape:export-filename="wave.png"
     inkscape:export-xdpi="96"
     inkscape:export-ydpi="96"><path
       id="path22"
       style="display:inline;fill:#0099ff;fill-opacity:0.501961;stroke:none;stroke-width:1.05833;stroke-miterlimit:4;stroke-dasharray:none;stroke-opacity:0.501961;paint-order:fill markers stroke"
       d="m 34.077034,28.031228 c -1.17264,0 -2.11667,0.944034 -2.11667,2.116667 v 16.933334 c 0,1.172633 0.94403,2.116667 2.11667,2.116667 h 16.933334 c 1.17264,0 2.11667,-0.944034 2.11667,-2.116667 V 30.147895 c 0,-1.172633 -0.94403,-2.116667 -2.11667,-2.116667 z m 0,1.058334 h 16.933334 c 0.58632,0 1.05834,0.472016 1.05834,1.058333 v 16.933334 c 0,0.586317 -0.47202,1.058333 -1.05834,1.058333 H 34.077034 c -0.58632,0 -1.05834,-0.472016 -1.05834,-1.058333 V 30.147895 c 0,-0.586317 0.47202,-1.058333 1.05834,-1.058333 z"
       inkscape:label="outline" /><rect
       style="display:inline;fill:#ffffff;fill-opacity:0.501961;stroke:none;stroke-width:0.952497;stroke-miterlimit:4;stroke-dasharray:none;stroke-opacity:0.501961;paint-order:fill markers stroke"
       id="rect22"
       width="19.049999"
       height="19.049999"
       x="33.018719"
       y="29.08956"
       rx="1.0583333"
       ry="1.0583333"
       inkscape:label="bg" /><text
       xml:space="preserve"
       style="font-style:normal;font-variant:normal;font-weight:normal;font-stretch:normal;font-size:4.23333px;line-height:0.8;font-family:'Fugaz One';-inkscape-font-specification:'Fugaz One, Normal';font-variant-ligatures:normal;font-variant-caps:normal;font-variant-numeric:normal;font-variant-east-asian:normal;text-align:center;writing-mode:lr-tb;direction:ltr;text-anchor:middle;fill:#000000;fill-opacity:1;stroke:none;stroke-width:1.05833;stroke-linecap:butt;stroke-miterlimit:4;stroke-dasharray:none;stroke-dashoffset:0;stroke-opacity:0.501961;paint-order:normal"
       x="42.571232"
       y="47.021965"
       id="text22"
       inkscape:label="text"><tspan
         sodipodi:role="line"
         id="tspan22"
         style="font-style:normal;font-variant:normal;font-weight:normal;font-stretch:normal;font-size:4.23333px;font-family:'Fugaz One';-inkscape-font-specification:'Fugaz One, Normal';font-variant-ligatures:normal;font-variant-caps:normal;font-variant-numeric:normal;font-variant-east-asian:normal;fill:#000000;fill-opacity:1;stroke-width:1.05833"
         x="42.571232"
         y="47.021965">Wave</tspan></text><path
       id="path23"
       style="fill:#0000ff;fill-opacity:1;stroke-width:0.100657"
       d="m 49.819608,29.98317 c -0.99664,0.308613 -0.93054,1.516706 -0.87931,2.353568 -0.26358,0.177488 -0.81204,-0.232025 -1.20663,-0.240287 -1.08122,-0.210193 -1.99311,0.872387 -1.77665,1.911208 0.0358,0.376184 0.11896,0.933413 -0.41195,0.592506 -0.82328,-0.407655 -2.01005,-0.30974 -2.41491,0.627145 -0.28012,0.550718 -0.0927,1.175359 -0.13867,1.759767 -0.79941,-0.240406 -1.80316,-0.650138 -2.49805,0.06445 -0.678904,0.547541 -0.397454,1.528342 -0.500004,2.222654 -0.81899,-0.293682 -1.8848,-0.647724 -2.55664,0.140625 -0.56164,0.569475 -0.35816,1.416208 -0.38281,2.128906 -0.80541,-0.221064 -1.88286,-0.669219 -2.52735,0.125 -0.54041,0.637138 0.37417,1.555671 1.04102,1.050782 0.83417,0.227815 1.92921,0.661594 2.60547,-0.15625 0.5688,-0.576688 0.35055,-1.418539 0.38476,-2.132813 0.79397,0.230923 1.794584,0.65466 2.481994,-0.05748 0.69294,-0.536733 0.4353,-1.492116 0.49653,-2.223769 0.81426,0.254054 1.87626,0.662937 2.54602,-0.118815 0.59891,-0.566132 0.39227,-1.428839 0.41492,-2.154621 0.83425,0.243145 1.8953,0.651684 2.57812,-0.144531 0.59578,-0.562906 0.32474,-1.467513 0.41602,-2.144532 0.79462,0.256053 1.76609,0.636272 2.4707,-0.04687 0.69731,-0.564139 0.40064,-1.53874 0.51367,-2.269531 0.5687,-0.507075 0.0821,-1.490976 -0.65625,-1.287109 z"
       inkscape:label="art" /></g><g
     inkscape:groupmode="layer"
     id="g25"
     inkscape:label="loops"
     style="display:inline"
     transform="translate(0.07719303,-0.52105263)"
     inkscape:export-filename="loops.png"
     inkscape:export-xdpi="96"
     inkscape:export-ydpi="96"><path
       id="path24"
       style="display:inline;fill:#0099ff;fill-opacity:0.501961;stroke:none;stroke-width:1.05833;stroke-miterlimit:4;stroke-dasharray:none;stroke-opacity:0.501961;paint-order:fill markers stroke"
       d="m 65.081784,28.522481 c -1.17264,0 -2.11667,0.944034 -2.11667,2.116667 v 16.933333 c 0,1.172633 0.94403,2.116667 2.11667,2.116667 h 16.933334 c 1.17264,0 2.11667,-0.944034 2.11667,-2.116667 V 30.639148 c 0,-1.172633 -0.94403,-2.116667 -2.11667,-2.116667 z m 0,1.058334 h 16.933334 c 0.58632,0 1.05834,0.472016 1.05834,1.058333 v 16.933333 c 0,0.586317 -0.47202,1.058333 -1.05834,1.058333 H 65.081784 c -0.58632,0 -1.05834,-0.472016 -1.05834,-1.058333 V 30.639148 c 0,-0.586317 0.47202,-1.058333 1.05834,-1.058333 z"
       inkscape:label="outline" /><rect
       style="display:inline;fill:#ffffff;fill-opacity:0.501961;stroke:none;stroke-width:0.952497;stroke-miterlimit:4;stroke-dasharray:none;stroke-opacity:0.501961;paint-order:fill markers stroke"
       id="rect24"
       width="19.049999"
       height="19.049999"
       x="64.023468"
       y="29.580814"
       rx="1.0583333"
       ry="1.0583333"
       inkscape:label="bg" /><text
       xml:space="preserve"
       style="font-style:normal;font-variant:normal;font-weight:normal;font-stretch:normal;font-size:4.23333px;line-height:0.8;font-family:'Fugaz One';-inkscape-font-specification:'Fugaz One, Normal';font-variant-ligatures:normal;font-variant-caps:normal;font-variant-numeric:normal;font-variant-east-asian:normal;text-align:center;writing-mode:lr-tb;direction:ltr;text-anchor:middle;fill:#000000;fill-opacity:1;stroke:none;stroke-width:1.05833;stroke-linecap:butt;stroke-miterlimit:4;stroke-dasharray:none;stroke-dashoffset:0;stroke-opacity:0.501961;paint-order:normal"
       x="73.575981"
       y="47.513218"
       id="text24"
       inkscape:label="text"><tspan
         sodipodi:role="line"
         style="font-style:normal;font-variant:normal;font-weight:normal;font-stretch:normal;font-size:4.23333px;font-family:'Fugaz One';-inkscape-font-specification:'Fugaz One, Normal';font-variant-ligatures:normal;font-variant-caps:normal;font-variant-numeric:normal;font-variant-east-asian:normal;fill:#000000;fill-opacity:1;stroke-width:1.05833"
         x="73.575981"
         y="47.513218"
         id="tspan27">Loops</tspan></text><path
       style="display:inline;fill:#0000ff;fill-opacity:1;stroke-width:0.0735121"
       d="m 76.631799,31.135683 c 0.178626,-0.0979 0.473226,-0.198347 0.62136,-0.211855 0.41616,-0.03795 0.819275,0.218117 1.056171,0.670885 0.313966,0.600067 0.361837,1.393219 0.131395,2.177024 l -0.09542,0.324557 0.20267,-0.04577 c 0.338991,-0.07656 0.668723,-0.223616 1.002524,-0.447098 0.446608,-0.299006 0.711285,-0.570405 0.982081,-1.007023 0.155606,-0.250892 0.377646,-0.403224 0.536255,-0.367899 0.08289,0.01846 0.08754,0.02795 0.06206,0.126842 -0.0451,0.175073 -0.42198,0.680301 -0.734561,0.9847 -0.610232,0.594262 -1.442666,1.066251 -2.134782,1.210426 l -0.166415,0.03466 -0.153209,0.233932 c -0.469927,0.717522 -1.344905,1.394419 -2.218215,1.716045 -0.127374,0.04692 -0.317447,0.102509 -0.422385,0.123548 l -0.190795,0.03825 -0.100021,0.158342 c -0.284947,0.451099 -0.685074,0.855906 -1.214268,1.228473 -0.508599,0.358068 -1.060223,0.613328 -1.492075,0.690448 l -0.165479,0.02955 -0.147302,0.219352 c -0.198912,0.296212 -0.586898,0.717153 -0.887628,0.963022 -0.541479,0.442701 -1.133901,0.749052 -1.740517,0.900049 l -0.234945,0.05848 -0.09196,0.140055 c -0.352095,0.536272 -0.896931,1.059117 -1.454239,1.39554 -0.501704,0.302859 -0.897073,0.464973 -1.34586,0.551851 -0.202644,0.03923 -0.239016,0.03619 -0.269471,-0.0225 -0.02695,-0.05193 -0.01753,-0.0923 0.0401,-0.172056 0.123402,-0.170743 0.245918,-0.240283 0.533204,-0.302651 0.140982,-0.0306 0.374403,-0.1049 0.518713,-0.165097 0.236885,-0.09881 0.295532,-0.132931 0.603477,-0.351102 0.292365,-0.207134 0.365855,-0.268286 0.514435,-0.42807 0.09534,-0.102527 0.23438,-0.279266 0.30898,-0.392752 l 0.135639,-0.206338 -0.391786,-0.07606 c -0.661187,-0.128341 -1.096577,-0.415936 -1.414165,-0.934119 -0.497235,-0.811297 -0.252924,-1.71578 0.634055,-2.347379 0.7917,-0.563757 1.491029,-0.436343 1.89776,0.345761 0.222111,0.427124 0.301852,0.903933 0.249316,1.49099 -0.02167,0.24212 -0.117445,0.680084 -0.188511,0.862011 l -0.04892,0.125254 0.20772,-0.04694 c 0.114247,-0.02582 0.325898,-0.09509 0.470339,-0.153945 0.240459,-0.09798 0.291461,-0.127441 0.604464,-0.349197 0.310042,-0.219656 0.360837,-0.262828 0.545925,-0.464003 0.112242,-0.121998 0.256745,-0.30371 0.321116,-0.403804 l 0.117039,-0.181992 -0.16222,-0.01545 c -0.995497,-0.09472 -1.783375,-0.767037 -1.897789,-1.619427 -0.08497,-0.633046 0.235268,-1.254577 0.882277,-1.712367 0.507444,-0.359048 0.949584,-0.435994 1.345919,-0.234253 0.09421,0.04795 0.220177,0.135343 0.279938,0.194203 0.140934,0.138807 0.395126,0.627818 0.452036,0.869611 0.118984,0.505565 0.09332,1.150376 -0.06656,1.672522 -0.05032,0.164323 -0.09019,0.301281 -0.0886,0.304348 0.0092,0.01782 0.28077,-0.0462 0.492534,-0.116132 0.611791,-0.202027 1.239084,-0.688601 1.619032,-1.255837 l 0.138346,-0.20654 -0.119345,-0.01026 c -1.215268,-0.104548 -2.093771,-1.038954 -1.937549,-2.060837 0.07385,-0.483065 0.365929,-0.912015 0.862053,-1.266018 0.284583,-0.203058 0.518251,-0.303551 0.790612,-0.340005 0.75566,-0.101141 1.343404,0.64845 1.3769,1.75606 0.01262,0.417213 -0.06668,0.914197 -0.200017,1.253567 l -0.05452,0.138758 0.217128,-0.04467 c 0.11942,-0.02458 0.335102,-0.09412 0.479293,-0.15454 0.23886,-0.100095 0.294093,-0.13248 0.621207,-0.364251 0.324166,-0.229679 0.375119,-0.272479 0.524603,-0.440668 0.170514,-0.191848 0.413586,-0.54291 0.397445,-0.574014 -0.005,-0.0097 -0.110672,-0.03007 -0.23481,-0.04536 -0.683437,-0.08419 -1.21717,-0.416159 -1.551463,-0.964994 -0.33529,-0.55047 -0.342241,-1.131059 -0.01998,-1.668699 0.161855,-0.270025 0.571025,-0.658975 0.85965,-0.817166 z m -0.280937,0.658913 c -0.1672,0.241414 -0.236249,0.522258 -0.206942,0.841716 0.02026,0.220869 0.313583,0.760554 0.505416,0.929925 0.306833,0.270902 0.644382,0.437018 1.027892,0.50585 l 0.157416,0.02826 0.05443,-0.224773 c 0.167356,-0.69094 0.112848,-1.305056 -0.162693,-1.832935 -0.197416,-0.378217 -0.373651,-0.539774 -0.64461,-0.590931 -0.271643,-0.05128 -0.547567,0.07816 -0.730922,0.342894 z m -2.989441,2.114226 c -0.134197,0.170707 -0.225094,0.49119 -0.213212,0.751738 0.01067,0.23419 0.213182,0.702157 0.386638,0.893493 0.192883,0.212762 0.435353,0.386568 0.683522,0.489957 0.272835,0.113664 0.555853,0.187759 0.599384,0.156919 0.04915,-0.03481 0.134381,-0.415654 0.158026,-0.706129 0.04122,-0.50637 -0.0046,-0.787896 -0.198126,-1.21586 -0.249458,-0.551806 -0.506843,-0.760132 -0.882995,-0.714697 -0.200011,0.02416 -0.365331,0.13099 -0.533237,0.344579 z m -2.966252,2.087997 c -0.291955,0.351317 -0.3182,0.839911 -0.07129,1.327103 0.195888,0.386508 0.449357,0.629305 0.861279,0.825005 0.179695,0.08537 0.606086,0.196205 0.646011,0.167918 0.03746,-0.02655 0.121166,-0.39666 0.149212,-0.659809 0.0595,-0.558242 -0.04465,-1.081119 -0.295041,-1.481321 -0.191561,-0.306167 -0.333355,-0.423325 -0.577013,-0.476754 -0.267587,-0.05868 -0.496232,0.03682 -0.713162,0.297858 z m -3.007945,2.136014 c -0.290997,0.371841 -0.303714,0.824697 -0.03749,1.334994 0.204522,0.39203 0.436606,0.609928 0.849085,0.797206 0.272903,0.123906 0.590744,0.206711 0.645241,0.168101 0.05459,-0.03866 0.144599,-0.527632 0.157799,-0.857158 0.01852,-0.4625 -0.04738,-0.777324 -0.242052,-1.156215 -0.243612,-0.474154 -0.480586,-0.648305 -0.830373,-0.61024 -0.160061,0.01742 -0.210548,0.03516 -0.319473,0.112341 -0.07382,0.0523 -0.169461,0.142887 -0.222742,0.210971 z"
       id="path28"
       inkscape:label="art" /></g><g
     inkscape:groupmode="layer"
     id="layer1"
     inkscape:label="ticked"><path
       id="path29"
       style="display:inline;fill:#0099ff;fill-opacity:0.501961;stroke:none;stroke-width:1.05833;stroke-miterlimit:4;stroke-dasharray:none;stroke-opacity:0.501961;paint-order:fill markers stroke"
       d="m 30.529168,64.029166 c -1.172633,0 -2.116667,0.944034 -2.116667,2.116667 v 16.933333 c 0,1.172633 0.944034,2.116667 2.116667,2.116667 h 16.933333 c 1.172633,0 2.116667,-0.944034 2.116667,-2.116667 V 66.145833 c 0,-1.172633 -0.944034,-2.116667 -2.116667,-2.116667 z m 0,1.058334 h 16.933333 c 0.586317,0 1.058333,0.472016 1.058333,1.058333 v 16.933333 c 0,0.586317 -0.472016,1.058333 -1.058333,1.058333 H 30.529168 c -0.586317,0 -1.058333,-0.472016 -1.058333,-1.058333 V 66.145833 c 0,-0.586317 0.472016,-1.058333 1.058333,-1.058333 z"
       inkscape:label="outline" /><rect
       style="display:inline;fill:#ffffff;fill-opacity:0.501961;stroke:none;stroke-width:0.952497;stroke-miterlimit:4;stroke-dasharray:none;stroke-opacity:0.501961;paint-order:fill markers stroke"
       id="rect29"
       width="19.049999"
       height="19.049999"
       x="29.470835"
       y="65.087502"
       rx="1.0583333"
       ry="1.0583333"
       inkscape:label="bg" /><path
       style="fill:#00ff00;fill-opacity:1;stroke-width:0.395446"
       d="m 36.390458,79.642701 c -0.11509,-0.04911 -1.077089,-0.961512 -2.13777,-2.027561 l -1.928513,-1.938276 -0.04542,-0.627976 c -0.03768,-0.521077 -0.0048,-0.693574 0.192733,-1.013324 0.326856,-0.528866 0.998566,-0.823102 1.655094,-0.724999 0.443789,0.06632 0.59031,0.176282 1.717044,1.28868 l 1.231851,1.21618 3.057919,-3.052336 c 1.681854,-1.678788 3.190462,-3.101632 3.352457,-3.161882 1.301603,-0.484086 2.56025,0.688333 2.167789,2.019276 -0.107854,0.365756 -0.709798,1.018337 -3.800908,4.120653 -2.020019,2.027343 -3.823564,3.757638 -4.007873,3.845099 -0.361474,0.171529 -1.11608,0.200827 -1.454401,0.05647 z"
       id="path30"
       sodipodi:nodetypes="sscscsscssssss" /></g></svg>
